<svg xmlns="http://www.w3.org/2000/svg" viewBox="-124.00 -61.92 1448.00 1023.84" width="297mm" height="210mm" data-mm-per-px="0.20511" role="img" aria-label="Tactile representation of 42 geometry features and 4 labels."><defs><style>.stroke { stroke:#000; stroke-width:3.440; stroke-linecap:round; stroke-linejoin:round; fill:none; } .braille { fill:#000; stroke:none; }</style></defs><rect x="-124.00" y="-61.92" width="1448.00" height="1023.84" fill="white"/><g class="stroke"><line data-element-id="el_0" x1="398.0" y1="221.0" x2="399.0" y2="778.0"/><line data-element-id="el_1" x1="121.0" y1="499.0" x2="399.0" y2="778.0"/><line data-element-id="el_2" x1="402.0" y1="501.0" x2="134.0" y2="414.0"/><line data-element-id="el_3" x1="126.0" y1="450.0" x2="402.0" y2="762.0"/><line data-element-id="el_6" x1="133.0" y1="421.0" x2="402.0" y2="708.0"/><line data-element-id="el_9" x1="124.0" y1="538.0" x2="360.0" y2="776.0"/><line data-element-id="el_10" x1="434.0" y1="64.0" x2="630.0" y2="54.0"/><line data-element-id="el_12" x1="137.0" y1="407.0" x2="398.0" y2="668.0"/><line data-element-id="el_13" x1="200.0" y1="434.0" x2="398.0" y2="632.0"/><line data-element-id="el_14" x1="254.0" y1="452.0" x2="398.0" y2="596.0"/><line data-element-id="el_16" x1="791.0" y1="71.0" x2="707.0" y2="64.0"/><line data-element-id="el_17" x1="436.0" y1="53.0" x2="560.0" y2="63.0"/><line data-element-id="el_20" x1="659.0" y1="56.0" x2="792.0" y2="52.0"/><line data-element-id="el_21" x1="782.0" y1="441.0" x2="784.0" y2="499.0"/><line data-element-id="el_22" x1="287.0" y1="755.0" x2="145.0" y2="613.0"/><line data-element-id="el_23" x1="858.0" y1="442.0" x2="858.0" y2="498.0"/><line data-element-id="el_27" x1="634.0" y1="69.0" x2="578.0" y2="70.0"/><line data-element-id="el_29" x1="858.0" y1="442.0" x2="782.0" y2="441.0"/><line data-element-id="el_30" x1="305.0" y1="467.0" x2="398.0" y2="560.0"/><line data-element-id="el_32" x1="858.0" y1="498.0" x2="803.0" y2="443.0"/><line data-element-id="el_34" x1="858.0" y1="498.0" x2="784.0" y2="499.0"/><polygon data-element-id="el_35" points="781.0,551.0 781.0,609.0 859.0,609.0 859.0,551.0"/><polygon data-element-id="el_36" points="782.0,332.0 782.0,388.0 858.0,388.0 858.0,332.0"/><polygon data-element-id="el_37" points="752.0,292.0 752.0,648.0 1078.0,648.0 1078.0,292.0"/><circle data-element-id="el_38" cx="400.0" cy="501.0" r="275.6"/><circle data-element-id="el_39" cx="399.0" cy="778.0" r="3.4"/><circle data-element-id="el_40" cx="630.0" cy="54.0" r="3.4"/><circle data-element-id="el_41" cx="434.0" cy="64.0" r="3.4"/><circle data-element-id="el_42" cx="707.0" cy="64.0" r="3.4"/><circle data-element-id="el_43" cx="560.0" cy="63.0" r="3.4"/><circle data-element-id="el_44" cx="782.0" cy="441.0" r="3.4"/><circle data-element-id="el_45" cx="784.0" cy="499.0" r="3.4"/><circle data-element-id="el_46" cx="858.0" cy="442.0" r="3.4"/><circle data-element-id="el_47" cx="858.0" cy="498.0" r="3.4"/><polyline data-element-id="el_48" class="right-angle" points="781.0,574.2 804.2,574.2 804.2,551.0"/></g><g class="tactile-braille"><g data-element-id="el_56" class="braille" role="img" aria-label="Favourite Fruits" data-braille="⠠⠋⠁⠧⠳⠗⠊⠞⠑⠀⠠⠋⠗⠥⠊⠞⠎"><title>Favourite Fruits</title><circle cx="374.1" cy="32.2" r="3.66"/><circle cx="391.1" cy="7.8" r="3.66"/><circle cx="391.1" cy="20.0" r="3.66"/><circle cx="403.3" cy="7.8" r="3.66"/><circle cx="420.4" cy="7.8" r="3.66"/><circle cx="449.6" cy="7.8" r="3.66"/><circle cx="449.6" cy="20.0" r="3.66"/><circle cx="449.6" cy="32.2" r="3.66"/><circle cx="461.8" cy="32.2" r="3.66"/><circle cx="478.9" cy="7.8" r="3.66"/><circle cx="478.9" cy="20.0" r="3.66"/><circle cx="491.1" cy="20.0" r="3.66"/><circle cx="491.1" cy="32.2" r="3.66"/><circle cx="508.1" cy="7.8" r="3.66"/><circle cx="508.1" cy="20.0" r="3.66"/><circle cx="508.1" cy="32.2" r="3.66"/><circle cx="520.3" cy="20.0" r="3.66"/><circle cx="537.4" cy="20.0" r="3.66"/><circle cx="549.6" cy="7.8" r="3.66"/><circle cx="566.7" cy="20.0" r="3.66"/><circle cx="566.7" cy="32.2" r="3.66"/><circle cx="578.8" cy="7.8" r="3.66"/><circle cx="578.8" cy="20.0" r="3.66"/><circle cx="595.9" cy="7.8" r="3.66"/><circle cx="608.1" cy="20.0" r="3.66"/><circle cx="666.6" cy="32.2" r="3.66"/><circle cx="683.7" cy="7.8" r="3.66"/><circle cx="683.7" cy="20.0" r="3.66"/><circle cx="695.9" cy="7.8" r="3.66"/><circle cx="712.9" cy="7.8" r="3.66"/><circle cx="712.9" cy="20.0" r="3.66"/><circle cx="712.9" cy="32.2" r="3.66"/><circle cx="725.1" cy="20.0" r="3.66"/><circle cx="742.2" cy="7.8" r="3.66"/><circle cx="742.2" cy="32.2" r="3.66"/><circle cx="754.4" cy="32.2" r="3.66"/><circle cx="771.4" cy="20.0" r="3.66"/><circle cx="783.6" cy="7.8" r="3.66"/><circle cx="800.7" cy="20.0" r="3.66"/><circle cx="800.7" cy="32.2" r="3.66"/><circle cx="812.9" cy="7.8" r="3.66"/><circle cx="812.9" cy="20.0" r="3.66"/><circle cx="829.9" cy="20.0" r="3.66"/><circle cx="829.9" cy="32.2" r="3.66"/><circle cx="842.1" cy="7.8" r="3.66"/></g><g data-element-id="el_57" class="braille" role="img" aria-label="Apple" data-braille="⠠⠁⠏⠏⠇⠑"><title>Apple</title><circle cx="889.0" cy="368.2" r="3.66"/><circle cx="906.0" cy="343.8" r="3.66"/><circle cx="935.3" cy="343.8" r="3.66"/><circle cx="935.3" cy="356.0" r="3.66"/><circle cx="935.3" cy="368.2" r="3.66"/><circle cx="947.5" cy="343.8" r="3.66"/><circle cx="964.5" cy="343.8" r="3.66"/><circle cx="964.5" cy="356.0" r="3.66"/><circle cx="964.5" cy="368.2" r="3.66"/><circle cx="976.7" cy="343.8" r="3.66"/><circle cx="993.8" cy="343.8" r="3.66"/><circle cx="993.8" cy="356.0" r="3.66"/><circle cx="993.8" cy="368.2" r="3.66"/><circle cx="1023.0" cy="343.8" r="3.66"/><circle cx="1035.2" cy="356.0" r="3.66"/></g><g data-element-id="el_58" class="braille" role="img" aria-label="Mango" data-braille="⠠⠍⠁⠝⠛⠕"><title>Mango</title><circle cx="891.0" cy="485.2" r="3.66"/><circle cx="908.0" cy="460.8" r="3.66"/><circle cx="908.0" cy="485.2" r="3.66"/><circle cx="920.2" cy="460.8" r="3.66"/><circle cx="937.3" cy="460.8" r="3.66"/><circle cx="966.5" cy="460.8" r="3.66"/><circle cx="966.5" cy="485.2" r="3.66"/><circle cx="978.7" cy="460.8" r="3.66"/><circle cx="978.7" cy="473.0" r="3.66"/><circle cx="995.8" cy="460.8" r="3.66"/><circle cx="995.8" cy="473.0" r="3.66"/><circle cx="1008.0" cy="460.8" r="3.66"/><circle cx="1008.0" cy="473.0" r="3.66"/><circle cx="1025.0" cy="460.8" r="3.66"/><circle cx="1025.0" cy="485.2" r="3.66"/><circle cx="1037.2" cy="473.0" r="3.66"/></g><g data-element-id="el_59" class="braille" role="img" aria-label="Banana" data-braille="⠠⠃⠁⠝⠁⠝⠁"><title>Banana</title><circle cx="988.3" cy="697.2" r="3.66"/><circle cx="1005.4" cy="672.8" r="3.66"/><circle cx="1005.4" cy="685.0" r="3.66"/><circle cx="1034.7" cy="672.8" r="3.66"/><circle cx="1063.9" cy="672.8" r="3.66"/><circle cx="1063.9" cy="697.2" r="3.66"/><circle cx="1076.1" cy="672.8" r="3.66"/><circle cx="1076.1" cy="685.0" r="3.66"/><circle cx="1093.2" cy="672.8" r="3.66"/><circle cx="1122.4" cy="672.8" r="3.66"/><circle cx="1122.4" cy="697.2" r="3.66"/><circle cx="1134.6" cy="672.8" r="3.66"/><circle cx="1134.6" cy="685.0" r="3.66"/><circle cx="1151.7" cy="672.8" r="3.66"/></g></g></svg>
